<svg width="38" height="41" viewBox="0 0 38 41" fill="none" xmlns="http://www.w3.org/2000/svg">
<g filter="url(#filter0_d_5485_22809)">
<path d="M4 18C4 10.9289 4 7.3934 6.1967 5.1967C8.3934 3 11.9289 3 19 3C26.0711 3 29.6066 3 31.8033 5.1967C34 7.3934 34 10.9289 34 18C34 25.0711 34 28.6066 31.8033 30.8033C29.6066 33 26.0711 33 19 33C11.9289 33 8.3934 33 6.1967 30.8033C4 28.6066 4 25.0711 4 18Z" fill="#10FFA9"/>
<path d="M4.5 18C4.5 14.4503 4.50106 11.8384 4.77013 9.83709C5.03726 7.85017 5.56029 6.54022 6.55025 5.55025C7.54022 4.56029 8.85017 4.03726 10.8371 3.77013C12.8384 3.50106 15.4503 3.5 19 3.5C22.5497 3.5 25.1616 3.50106 27.1629 3.77013C29.1498 4.03726 30.4598 4.56029 31.4497 5.55025C32.4397 6.54022 32.9627 7.85017 33.2299 9.83709C33.4989 11.8384 33.5 14.4503 33.5 18C33.5 21.5497 33.4989 24.1616 33.2299 26.1629C32.9627 28.1498 32.4397 29.4598 31.4497 30.4497C30.4598 31.4397 29.1498 31.9627 27.1629 32.2299C25.1616 32.4989 22.5497 32.5 19 32.5C15.4503 32.5 12.8384 32.4989 10.8371 32.2299C8.85017 31.9627 7.54022 31.4397 6.55025 30.4497C5.56029 29.4598 5.03726 28.1498 4.77013 26.1629C4.50106 24.1616 4.5 21.5497 4.5 18Z" stroke="#0E0E1F" stroke-opacity="0.25"/>
<path d="M12.2955 14.2045C11.8562 13.7652 11.1438 13.7652 10.7045 14.2045C10.2652 14.6438 10.2652 15.3562 10.7045 15.7955L14.1438 19.2348C15.169 20.26 16.831 20.26 17.8562 19.2348L20.2348 16.8562C20.3813 16.7097 20.6187 16.7097 20.7652 16.8562L23.784 19.875H22.75C22.1287 19.875 21.625 20.3787 21.625 21C21.625 21.6213 22.1287 22.125 22.75 22.125H26.5C27.1213 22.125 27.625 21.6213 27.625 21V17.25C27.625 16.6287 27.1213 16.125 26.5 16.125C25.8787 16.125 25.375 16.6287 25.375 17.25V18.284L22.3562 15.2652C21.331 14.24 19.669 14.24 18.6438 15.2652L16.2652 17.6438C16.1187 17.7903 15.8813 17.7903 15.7348 17.6438L12.2955 14.2045Z" fill="#0E0E1F"/>
</g>
<defs>
<filter id="filter0_d_5485_22809" x="-3" y="0" width="44" height="44" filterUnits="userSpaceOnUse" color-interpolation-filters="sRGB">
<feFlood flood-opacity="0" result="BackgroundImageFix"/>
<feColorMatrix in="SourceAlpha" type="matrix" values="0 0 0 0 0 0 0 0 0 0 0 0 0 0 0 0 0 0 127 0" result="hardAlpha"/>
<feOffset dy="4"/>
<feGaussianBlur stdDeviation="2"/>
<feComposite in2="hardAlpha" operator="out"/>
<feColorMatrix type="matrix" values="0 0 0 0 0 0 0 0 0 0 0 0 0 0 0 0 0 0 0.25 0"/>
<feBlend mode="normal" in2="BackgroundImageFix" result="effect1_dropShadow_5485_22809"/>
<feBlend mode="normal" in="SourceGraphic" in2="effect1_dropShadow_5485_22809" result="shape"/>
</filter>
</defs>
</svg>
