<svg width="33" height="57" viewBox="0 0 33 57" fill="none" xmlns="http://www.w3.org/2000/svg">
<path d="M28.2 1.16C29.2 2.76 30.08 4.74 30.84 7.1C31.64 9.46 32.04 11.96 32.04 14.6C32.04 17.24 31.68 20.12 30.96 23.24C30.24 26.36 29.26 29.16 28.02 31.64C26.82 34.08 25.44 36.42 23.88 38.66C22.32 40.86 20.66 42.8 18.9 44.48C17.14 46.12 15.38 47.64 13.62 49.04C11.9 50.44 10.26 51.6 8.7 52.52C5.5 54.48 3.14 55.76 1.62 56.36L0.54 56.84C0.46 56.84 0.42 56.8 0.42 56.72L0.78 56.18C9.26 52.26 16.26 46.36 21.78 38.48C27.34 30.56 30.12 21.68 30.12 11.84C30.12 7.96 29.32 4.48 27.72 1.4C27.72 1.08 27.76 0.92 27.84 0.92C27.96 0.92 28.08 0.999999 28.2 1.16Z" fill="#FDFDFD"/>
</svg>
