<svg width="113" height="60" fill="none" xmlns="http://www.w3.org/2000/svg"><path d="M76.754 30.995c0-1.95.45-3.632 1.372-5.047.922-1.416 2.048-2.463 3.4-3.12a9.855 9.855 0 0 1 4.364-.984c1.229 0 2.396.205 3.461.615 1.086.41 2.049 1.088 2.91 2.032.86.944 1.433 2.113 1.74 3.467h-4.506c-.39-.697-.86-1.19-1.434-1.497-.573-.308-1.311-.452-2.171-.452-1.393 0-2.479.472-3.257 1.416-.779.944-1.188 2.134-1.188 3.529 0 1.498.41 2.667 1.208 3.55.8.882 1.885 1.313 3.237 1.313.962 0 1.74-.164 2.335-.472.594-.308 1.086-.882 1.495-1.682h-3.769v-3.899h8.358c.143 2.052 0 3.755-.492 5.15-.614 1.764-1.639 3.057-3.073 3.898-1.454.842-3.052 1.252-4.854 1.252a9.772 9.772 0 0 1-3.34-.574 9.387 9.387 0 0 1-2.908-1.683c-.86-.718-1.557-1.682-2.09-2.873-.532-1.148-.798-2.482-.798-3.939Zm31.056-8.905v8.68l-10.693-9.583v18.775h4.63v-8.68l10.692 9.583V22.09h-4.629Zm-38.555 0v8.68l-10.692-9.583v18.775h4.65v-8.68l10.692 9.583V22.09h-4.65ZM.96 59.208 30.13 29.99V11.953L.96 59.208ZM30.133 29.99v18.056L59.282.792l-29.15 29.197Z" opacity=".8" fill="#FDFDFD"/></svg>