<svg width="113" height="60" viewBox="0 0 113 60" fill="none" xmlns="http://www.w3.org/2000/svg">
<g opacity="0.8">
<path d="M76.7539 30.9951C76.7539 29.0459 77.2045 27.3633 78.1264 25.9475C79.0478 24.5316 80.1744 23.4852 81.5265 22.8287C82.8785 22.1721 84.3329 21.8439 85.8897 21.8439C87.1186 21.8439 88.2864 22.049 89.3514 22.4592C90.4372 22.8699 91.3998 23.5468 92.2602 24.4909C93.1205 25.4345 93.6942 26.604 94.0012 27.9583H89.4949C89.1055 27.2606 88.6346 26.7684 88.0609 26.4605C87.4876 26.1526 86.75 26.0091 85.8897 26.0091C84.4969 26.0091 83.411 26.4809 82.6327 27.4249C81.8543 28.3685 81.4445 29.5589 81.4445 30.9539C81.4445 32.4518 81.8543 33.6213 82.653 34.5038C83.4522 35.3858 84.5376 35.8169 85.8897 35.8169C86.8523 35.8169 87.6307 35.653 88.2248 35.3451C88.8189 35.0372 89.3106 34.4626 89.7204 33.6625H85.9513V29.764H94.3087C94.4522 31.8156 94.3087 33.519 93.8169 34.914C93.2025 36.6785 92.1782 37.9712 90.7442 38.8125C89.2902 39.6538 87.6923 40.064 85.8897 40.064C84.7427 40.064 83.6365 39.8797 82.5507 39.4899C81.4857 39.1 80.5022 38.5458 79.6419 37.8073C78.7816 37.0892 78.0852 36.1248 77.5527 34.9344C77.0202 33.7857 76.7539 32.4518 76.7539 30.9951Z" fill="#FDFDFD"/>
<path d="M107.81 22.0902V30.7693L97.1172 21.1874V39.9617H101.747V31.2823L112.439 40.8646V22.0902H107.81Z" fill="#FDFDFD"/>
<path d="M69.255 22.0902V30.7693L58.5625 21.1874V39.9617H63.2123V31.2823L73.9049 40.8646V22.0902H69.255Z" fill="#FDFDFD"/>
<path d="M0.960938 59.2078L30.1304 29.9895V11.954L0.960938 59.2078Z" fill="#FDFDFD"/>
<path d="M30.1328 29.9895V48.0457L59.2817 0.791992L30.1328 29.9895Z" fill="#FDFDFD"/>
</g>
</svg>
