<svg width="123" height="24" fill="none" xmlns="http://www.w3.org/2000/svg"><g clip-path="url(#a)"><path d="m3.682 23.101 2.238-7.315L0 11.55h7.315l2.31-7.7 2.31 7.7h7.316l-5.92 4.235L15.57 23.1l-5.943-4.524L3.683 23.1Z" fill="url(#b)"/></g><g clip-path="url(#c)"><path d="m28.658 23.101 2.238-7.315-5.92-4.235h7.316l2.31-7.7 2.31 7.7h7.316l-5.92 4.235 2.238 7.315-5.944-4.524-5.944 4.524Z" fill="url(#d)"/></g><g clip-path="url(#e)"><path d="m53.631 23.101 2.238-7.315-5.92-4.235h7.316l2.31-7.7 2.31 7.7H69.2l-5.92 4.235 2.24 7.314-5.944-4.524-5.944 4.524Z" fill="url(#f)"/></g><g clip-path="url(#g)"><path d="m78.608 23.101 2.237-7.315-5.92-4.235h7.316l2.31-7.7 2.31 7.7h7.316l-5.92 4.235 2.238 7.315-5.944-4.524-5.943 4.524Z" fill="url(#h)"/></g><g clip-path="url(#i)"><path d="m103.58 23.101 2.238-7.315-5.92-4.235h7.316l2.31-7.7 2.31 7.7h7.316l-5.92 4.235 2.238 7.315-5.944-4.524-5.944 4.524Z" fill="url(#j)"/></g><defs><linearGradient id="b" x1=".419" y1="20.111" x2="20.112" y2="9.315" gradientUnits="userSpaceOnUse"><stop stop-color="#D0C0AA"/><stop offset=".275" stop-color="#D1C2AC"/><stop offset=".565" stop-color="#B7A58B"/><stop offset=".85" stop-color="#8A775A"/><stop offset="1" stop-color="#6E5E41"/></linearGradient><linearGradient id="d" x1="25.395" y1="20.111" x2="45.089" y2="9.315" gradientUnits="userSpaceOnUse"><stop stop-color="#D0C0AA"/><stop offset=".275" stop-color="#D1C2AC"/><stop offset=".565" stop-color="#B7A58B"/><stop offset=".85" stop-color="#8A775A"/><stop offset="1" stop-color="#6E5E41"/></linearGradient><linearGradient id="f" x1="50.368" y1="20.111" x2="70.062" y2="9.315" gradientUnits="userSpaceOnUse"><stop stop-color="#D0C0AA"/><stop offset=".275" stop-color="#D1C2AC"/><stop offset=".565" stop-color="#B7A58B"/><stop offset=".85" stop-color="#8A775A"/><stop offset="1" stop-color="#6E5E41"/></linearGradient><linearGradient id="h" x1="75.344" y1="20.111" x2="95.038" y2="9.315" gradientUnits="userSpaceOnUse"><stop stop-color="#D0C0AA"/><stop offset=".275" stop-color="#D1C2AC"/><stop offset=".565" stop-color="#B7A58B"/><stop offset=".85" stop-color="#8A775A"/><stop offset="1" stop-color="#6E5E41"/></linearGradient><linearGradient id="j" x1="100.317" y1="20.111" x2="120.011" y2="9.315" gradientUnits="userSpaceOnUse"><stop stop-color="#D0C0AA"/><stop offset=".275" stop-color="#D1C2AC"/><stop offset=".565" stop-color="#B7A58B"/><stop offset=".85" stop-color="#8A775A"/><stop offset="1" stop-color="#6E5E41"/></linearGradient><clipPath id="a"><path fill="#fff" d="M0 0h23.101v23.101H0z"/></clipPath><clipPath id="c"><path fill="#fff" transform="translate(24.977)" d="M0 0h23.101v23.101H0z"/></clipPath><clipPath id="e"><path fill="#fff" transform="translate(49.95)" d="M0 0h23.101v23.101H0z"/></clipPath><clipPath id="g"><path fill="#fff" transform="translate(74.926)" d="M0 0h23.101v23.101H0z"/></clipPath><clipPath id="i"><path fill="#fff" transform="translate(99.898)" d="M0 0h23.101v23.101H0z"/></clipPath></defs></svg>