<svg width="123" height="24" viewBox="0 0 123 24" fill="none" xmlns="http://www.w3.org/2000/svg">
<g clip-path="url(#clip0_318_1612)">
<path d="M3.68178 23.1013L5.91972 15.7859L0 11.5507H7.31543L9.62556 3.85022L11.9357 11.5507H19.2511L13.3314 15.7859L15.5693 23.1013L9.62556 18.5773L3.68178 23.1013Z" fill="url(#paint0_linear_318_1612)"/>
</g>
<g clip-path="url(#clip1_318_1612)">
<path d="M28.6583 23.1013L30.8963 15.7859L24.9766 11.5507H32.292L34.6021 3.85022L36.9123 11.5507H44.2277L38.308 15.7859L40.5459 23.1013L34.6021 18.5773L28.6583 23.1013Z" fill="url(#paint1_linear_318_1612)"/>
</g>
<g clip-path="url(#clip2_318_1612)">
<path d="M53.631 23.1013L55.8689 15.7859L49.9492 11.5507H57.2646L59.5748 3.85022L61.8849 11.5507H69.2003L63.2806 15.7859L65.5186 23.1013L59.5748 18.5773L53.631 23.1013Z" fill="url(#paint2_linear_318_1612)"/>
</g>
<g clip-path="url(#clip3_318_1612)">
<path d="M78.6076 23.1013L80.8455 15.7859L74.9258 11.5507H82.2412L84.5513 3.85022L86.8615 11.5507H94.1769L88.2572 15.7859L90.4951 23.1013L84.5513 18.5773L78.6076 23.1013Z" fill="url(#paint3_linear_318_1612)"/>
</g>
<g clip-path="url(#clip4_318_1612)">
<path d="M103.58 23.1013L105.818 15.7859L99.8984 11.5507H107.214L109.524 3.85022L111.834 11.5507H119.15L113.23 15.7859L115.468 23.1013L109.524 18.5773L103.58 23.1013Z" fill="url(#paint4_linear_318_1612)"/>
</g>
<defs>
<linearGradient id="paint0_linear_318_1612" x1="0.418501" y1="20.111" x2="20.1124" y2="9.31486" gradientUnits="userSpaceOnUse">
<stop stop-color="#D0C0AA"/>
<stop offset="0.275" stop-color="#D1C2AC"/>
<stop offset="0.565" stop-color="#B7A58B"/>
<stop offset="0.85" stop-color="#8A775A"/>
<stop offset="1" stop-color="#6E5E41"/>
</linearGradient>
<linearGradient id="paint1_linear_318_1612" x1="25.3951" y1="20.111" x2="45.0889" y2="9.31486" gradientUnits="userSpaceOnUse">
<stop stop-color="#D0C0AA"/>
<stop offset="0.275" stop-color="#D1C2AC"/>
<stop offset="0.565" stop-color="#B7A58B"/>
<stop offset="0.85" stop-color="#8A775A"/>
<stop offset="1" stop-color="#6E5E41"/>
</linearGradient>
<linearGradient id="paint2_linear_318_1612" x1="50.3677" y1="20.111" x2="70.0616" y2="9.31486" gradientUnits="userSpaceOnUse">
<stop stop-color="#D0C0AA"/>
<stop offset="0.275" stop-color="#D1C2AC"/>
<stop offset="0.565" stop-color="#B7A58B"/>
<stop offset="0.85" stop-color="#8A775A"/>
<stop offset="1" stop-color="#6E5E41"/>
</linearGradient>
<linearGradient id="paint3_linear_318_1612" x1="75.3443" y1="20.111" x2="95.0382" y2="9.31486" gradientUnits="userSpaceOnUse">
<stop stop-color="#D0C0AA"/>
<stop offset="0.275" stop-color="#D1C2AC"/>
<stop offset="0.565" stop-color="#B7A58B"/>
<stop offset="0.85" stop-color="#8A775A"/>
<stop offset="1" stop-color="#6E5E41"/>
</linearGradient>
<linearGradient id="paint4_linear_318_1612" x1="100.317" y1="20.111" x2="120.011" y2="9.31486" gradientUnits="userSpaceOnUse">
<stop stop-color="#D0C0AA"/>
<stop offset="0.275" stop-color="#D1C2AC"/>
<stop offset="0.565" stop-color="#B7A58B"/>
<stop offset="0.85" stop-color="#8A775A"/>
<stop offset="1" stop-color="#6E5E41"/>
</linearGradient>
<clipPath id="clip0_318_1612">
<rect width="23.1014" height="23.1014" fill="white"/>
</clipPath>
<clipPath id="clip1_318_1612">
<rect width="23.1014" height="23.1014" fill="white" transform="translate(24.9766)"/>
</clipPath>
<clipPath id="clip2_318_1612">
<rect width="23.1014" height="23.1014" fill="white" transform="translate(49.9492)"/>
</clipPath>
<clipPath id="clip3_318_1612">
<rect width="23.1014" height="23.1014" fill="white" transform="translate(74.9258)"/>
</clipPath>
<clipPath id="clip4_318_1612">
<rect width="23.1014" height="23.1014" fill="white" transform="translate(99.8984)"/>
</clipPath>
</defs>
</svg>
